{"title":"Deadwood.S02.WS.DVDRip.XviD-SAiNTS","uid":5726000,"size":4404451058,"categoryP":"video","categoryS":"movies","magnet":"?xt=urn:btih:3f36645d00480d00cc5e88ea330bfa27146eba20&amp;dn=Deadwood.S02.WS.DVDRip.XviD-SAiNTS&amp;tr=udp%3A%2F%2Ftracker.openbittorrent.com%3A80&amp;tr=udp%3A%2F%2Fopen.demonii.com%3A1337&amp;tr=udp%3A%2F%2Ftracker.coppersurfer.tk%3A6969&amp;tr=udp%3A%2F%2Fexodus.desync.com%3A6969","seeders":0,"leechers":1,"uploader":"bitFro","files":24,"time":1280463505,"description":"General\nComplete name                    : D:torrentsDeadwood.S02.WS.DVDRip.XviD-SAiNTSdw201-SAiNTS.avi\nFormat                           : AVI\nFormat/Info                      : Audio Video Interleave\nFile size                        : 350 MiB\nDuration                         : 47mn 2s\nOverall bit rate                 : 1 040 Kbps\nWriting application              : VirtualDubMod 1.5.10.2 (build 2540/release)\nWriting library                  : VirtualDubMod build 2540/release\n\nVideo\nID                               : 0\nFormat                           : MPEG-4 Visual\nFormat profile                   : Advanced Simple@L5\nFormat settings, BVOP            : Yes\nFormat settings, QPel            : No\nFormat settings, GMC             : No warppoints\nFormat settings, Matrix          : Default (H.263)\nMuxing mode                      : Packed bitstream\nCodec ID                         : XVID\nCodec ID/Hint                    : XviD\nDuration                         : 47mn 2s\nBit rate                         : 895 Kbps\nWidth                            : 608 pixels\nHeight                           : 336 pixels\nDisplay aspect ratio             : 16:9\nFrame rate                       : 25.000 fps\nColor space                      : YUV\nChroma subsampling               : 4:2:0\nBit depth                        : 8 bits\nScan type                        : Progressive\nBits/(Pixel*Frame)               : 0.175\nStream size                      : 301 MiB (86%)\nWriting library                  : XviD 1.1.0 (UTC 2005-11-22)\n\nAudio\nID                               : 1\nFormat                           : MPEG Audio\nFormat version                   : Version 1\nFormat profile                   : Layer 3\nMode                             : Joint stereo\nMode extension                   : MS Stereo\nCodec ID                         : 55\nCodec ID/Hint                    : MP3\nDuration                         : 47mn 2s\nBit rate mode                    : Variable\nBit rate                         : 128 Kbps\nChannel(s)                       : 2 channels\nSampling rate                    : 48.0 KHz\nStream size                      : 44.5 MiB (13%)\nAlignment                        : Aligned on interleaves\nInterleave, duration             : 24 ms (0.60 video frame)\nInterleave, preload duration     : 473 ms\nWriting library                  : LAME3.96r\nEncoding settings                : -m j -V 4 -q 3 -lowpass 17.5 --abr 128","torrent":{"xt":"urn:btih:3f36645d00480d00cc5e88ea330bfa27146eba20","amp;dn":"Deadwood.S02.WS.DVDRip.XviD-SAiNTS","amp;tr":["udp%3A%2F%2Ftracker.openbittorrent.com%3A80","udp%3A%2F%2Fopen.demonii.com%3A1337","udp%3A%2F%2Ftracker.coppersurfer.tk%3A6969","udp%3A%2F%2Fexodus.desync.com%3A6969"],"infoHash":"3f36645d00480d00cc5e88ea330bfa27146eba20","infoHashBuffer":{"type":"Buffer","data":[63,54,100,93,0,72,13,0,204,94,136,234,51,11,250,39,20,110,186,32]},"announce":[],"urlList":[]}}